<mxfile host="app.diagrams.net" modified="2022-10-19T04:13:18.481Z" agent="5.0 (Macintosh; Intel Mac OS X 10_15_7) AppleWebKit/537.36 (KHTML, like Gecko) Chrome/106.0.0.0 Safari/537.36" etag="9lXBfUVKXYw0LijMpBso" version="20.4.1" type="github">
  <diagram id="BT3O4cYaEiIY4j08mCXw" name="第 1 页">
    <mxGraphModel dx="1426" dy="793" grid="1" gridSize="10" guides="1" tooltips="1" connect="1" arrows="1" fold="1" page="1" pageScale="1" pageWidth="827" pageHeight="1169" math="0" shadow="0">
      <root>
        <mxCell id="0" />
        <mxCell id="1" parent="0" />
        <mxCell id="iZ-1Rn4YMgYXDhb0wlwq-2" value="CylinderFactory" style="swimlane;fontStyle=1;align=center;verticalAlign=top;childLayout=stackLayout;horizontal=1;startSize=26;horizontalStack=0;resizeParent=1;resizeParentMax=0;resizeLast=0;collapsible=1;marginBottom=0;" vertex="1" parent="1">
          <mxGeometry x="80" y="340" width="160" height="60" as="geometry" />
        </mxCell>
        <mxCell id="iZ-1Rn4YMgYXDhb0wlwq-4" value="" style="line;strokeWidth=1;fillColor=none;align=left;verticalAlign=middle;spacingTop=-1;spacingLeft=3;spacingRight=3;rotatable=0;labelPosition=right;points=[];portConstraint=eastwest;strokeColor=inherit;" vertex="1" parent="iZ-1Rn4YMgYXDhb0wlwq-2">
          <mxGeometry y="26" width="160" height="8" as="geometry" />
        </mxCell>
        <mxCell id="iZ-1Rn4YMgYXDhb0wlwq-5" value="+ getVolume(): Columnar" style="text;strokeColor=none;fillColor=none;align=left;verticalAlign=top;spacingLeft=4;spacingRight=4;overflow=hidden;rotatable=0;points=[[0,0.5],[1,0.5]];portConstraint=eastwest;" vertex="1" parent="iZ-1Rn4YMgYXDhb0wlwq-2">
          <mxGeometry y="34" width="160" height="26" as="geometry" />
        </mxCell>
        <mxCell id="iZ-1Rn4YMgYXDhb0wlwq-6" value="MitsubishiFactory" style="swimlane;fontStyle=1;align=center;verticalAlign=top;childLayout=stackLayout;horizontal=1;startSize=26;horizontalStack=0;resizeParent=1;resizeParentMax=0;resizeLast=0;collapsible=1;marginBottom=0;" vertex="1" parent="1">
          <mxGeometry x="260" y="340" width="160" height="60" as="geometry" />
        </mxCell>
        <mxCell id="iZ-1Rn4YMgYXDhb0wlwq-8" value="" style="line;strokeWidth=1;fillColor=none;align=left;verticalAlign=middle;spacingTop=-1;spacingLeft=3;spacingRight=3;rotatable=0;labelPosition=right;points=[];portConstraint=eastwest;strokeColor=inherit;" vertex="1" parent="iZ-1Rn4YMgYXDhb0wlwq-6">
          <mxGeometry y="26" width="160" height="8" as="geometry" />
        </mxCell>
        <mxCell id="iZ-1Rn4YMgYXDhb0wlwq-9" value="+ getVolume(): Columnar" style="text;strokeColor=none;fillColor=none;align=left;verticalAlign=top;spacingLeft=4;spacingRight=4;overflow=hidden;rotatable=0;points=[[0,0.5],[1,0.5]];portConstraint=eastwest;" vertex="1" parent="iZ-1Rn4YMgYXDhb0wlwq-6">
          <mxGeometry y="34" width="160" height="26" as="geometry" />
        </mxCell>
        <mxCell id="iZ-1Rn4YMgYXDhb0wlwq-10" value="RectangularFactory" style="swimlane;fontStyle=1;align=center;verticalAlign=top;childLayout=stackLayout;horizontal=1;startSize=26;horizontalStack=0;resizeParent=1;resizeParentMax=0;resizeLast=0;collapsible=1;marginBottom=0;" vertex="1" parent="1">
          <mxGeometry x="450" y="340" width="180" height="60" as="geometry" />
        </mxCell>
        <mxCell id="iZ-1Rn4YMgYXDhb0wlwq-12" value="" style="line;strokeWidth=1;fillColor=none;align=left;verticalAlign=middle;spacingTop=-1;spacingLeft=3;spacingRight=3;rotatable=0;labelPosition=right;points=[];portConstraint=eastwest;strokeColor=inherit;" vertex="1" parent="iZ-1Rn4YMgYXDhb0wlwq-10">
          <mxGeometry y="26" width="180" height="8" as="geometry" />
        </mxCell>
        <mxCell id="iZ-1Rn4YMgYXDhb0wlwq-13" value="+ getVolume(): Columnar" style="text;strokeColor=none;fillColor=none;align=left;verticalAlign=top;spacingLeft=4;spacingRight=4;overflow=hidden;rotatable=0;points=[[0,0.5],[1,0.5]];portConstraint=eastwest;" vertex="1" parent="iZ-1Rn4YMgYXDhb0wlwq-10">
          <mxGeometry y="34" width="180" height="26" as="geometry" />
        </mxCell>
        <mxCell id="iZ-1Rn4YMgYXDhb0wlwq-15" value="AbstractColumnarFactory" style="swimlane;fontStyle=1;align=center;verticalAlign=top;childLayout=stackLayout;horizontal=1;startSize=26;horizontalStack=0;resizeParent=1;resizeParentMax=0;resizeLast=0;collapsible=1;marginBottom=0;" vertex="1" parent="1">
          <mxGeometry x="188" y="170" width="304" height="90" as="geometry" />
        </mxCell>
        <mxCell id="iZ-1Rn4YMgYXDhb0wlwq-17" value="" style="line;strokeWidth=1;fillColor=none;align=left;verticalAlign=middle;spacingTop=-1;spacingLeft=3;spacingRight=3;rotatable=0;labelPosition=right;points=[];portConstraint=eastwest;strokeColor=inherit;" vertex="1" parent="iZ-1Rn4YMgYXDhb0wlwq-15">
          <mxGeometry y="26" width="304" height="8" as="geometry" />
        </mxCell>
        <mxCell id="iZ-1Rn4YMgYXDhb0wlwq-18" value="+ getVolume(): Columnar" style="text;strokeColor=none;fillColor=none;align=left;verticalAlign=top;spacingLeft=4;spacingRight=4;overflow=hidden;rotatable=0;points=[[0,0.5],[1,0.5]];portConstraint=eastwest;" vertex="1" parent="iZ-1Rn4YMgYXDhb0wlwq-15">
          <mxGeometry y="34" width="304" height="56" as="geometry" />
        </mxCell>
        <mxCell id="iZ-1Rn4YMgYXDhb0wlwq-21" value="" style="endArrow=block;endFill=0;endSize=12;html=1;rounded=0;exitX=0.463;exitY=0;exitDx=0;exitDy=0;exitPerimeter=0;entryX=0.48;entryY=0.987;entryDx=0;entryDy=0;entryPerimeter=0;" edge="1" parent="1" source="iZ-1Rn4YMgYXDhb0wlwq-6" target="iZ-1Rn4YMgYXDhb0wlwq-18">
          <mxGeometry width="160" relative="1" as="geometry">
            <mxPoint x="10" y="300" as="sourcePoint" />
            <mxPoint x="334" y="250" as="targetPoint" />
          </mxGeometry>
        </mxCell>
        <mxCell id="iZ-1Rn4YMgYXDhb0wlwq-22" value="" style="endArrow=none;endFill=0;endSize=12;html=1;rounded=0;exitX=0.5;exitY=0;exitDx=0;exitDy=0;" edge="1" parent="1" source="iZ-1Rn4YMgYXDhb0wlwq-10">
          <mxGeometry width="160" relative="1" as="geometry">
            <mxPoint x="430" y="310" as="sourcePoint" />
            <mxPoint x="330" y="300" as="targetPoint" />
            <Array as="points">
              <mxPoint x="540" y="300" />
            </Array>
          </mxGeometry>
        </mxCell>
        <mxCell id="iZ-1Rn4YMgYXDhb0wlwq-23" value="" style="endArrow=none;endFill=0;endSize=12;html=1;rounded=0;exitX=0.5;exitY=0;exitDx=0;exitDy=0;" edge="1" parent="1">
          <mxGeometry width="160" relative="1" as="geometry">
            <mxPoint x="160" y="340" as="sourcePoint" />
            <mxPoint x="340" y="300" as="targetPoint" />
            <Array as="points">
              <mxPoint x="160" y="300" />
            </Array>
          </mxGeometry>
        </mxCell>
        <mxCell id="iZ-1Rn4YMgYXDhb0wlwq-34" value="" style="edgeStyle=orthogonalEdgeStyle;rounded=0;orthogonalLoop=1;jettySize=auto;html=1;endArrow=classicThin;endFill=1;exitX=0.5;exitY=0;exitDx=0;exitDy=0;entryX=1.01;entryY=0.375;entryDx=0;entryDy=0;entryPerimeter=0;endSize=9;" edge="1" parent="1" source="iZ-1Rn4YMgYXDhb0wlwq-31" target="iZ-1Rn4YMgYXDhb0wlwq-18">
          <mxGeometry relative="1" as="geometry">
            <mxPoint x="760" y="160" as="targetPoint" />
            <Array as="points">
              <mxPoint x="870" y="390" />
              <mxPoint x="870" y="225" />
            </Array>
          </mxGeometry>
        </mxCell>
        <mxCell id="iZ-1Rn4YMgYXDhb0wlwq-31" value="FactoryDemo" style="swimlane;fontStyle=1;align=center;verticalAlign=top;childLayout=stackLayout;horizontal=1;startSize=26;horizontalStack=0;resizeParent=1;resizeParentMax=0;resizeLast=0;collapsible=1;marginBottom=0;" vertex="1" parent="1">
          <mxGeometry x="770" y="390" width="190" height="60" as="geometry" />
        </mxCell>
        <mxCell id="iZ-1Rn4YMgYXDhb0wlwq-32" value="" style="line;strokeWidth=1;fillColor=none;align=left;verticalAlign=middle;spacingTop=-1;spacingLeft=3;spacingRight=3;rotatable=0;labelPosition=right;points=[];portConstraint=eastwest;strokeColor=inherit;" vertex="1" parent="iZ-1Rn4YMgYXDhb0wlwq-31">
          <mxGeometry y="26" width="190" height="8" as="geometry" />
        </mxCell>
        <mxCell id="iZ-1Rn4YMgYXDhb0wlwq-33" value="+ main(): void" style="text;strokeColor=none;fillColor=none;align=left;verticalAlign=top;spacingLeft=4;spacingRight=4;overflow=hidden;rotatable=0;points=[[0,0.5],[1,0.5]];portConstraint=eastwest;" vertex="1" parent="iZ-1Rn4YMgYXDhb0wlwq-31">
          <mxGeometry y="34" width="190" height="26" as="geometry" />
        </mxCell>
        <mxCell id="iZ-1Rn4YMgYXDhb0wlwq-35" value="Cylinder" style="swimlane;fontStyle=1;align=center;verticalAlign=top;childLayout=stackLayout;horizontal=1;startSize=26;horizontalStack=0;resizeParent=1;resizeParentMax=0;resizeLast=0;collapsible=1;marginBottom=0;" vertex="1" parent="1">
          <mxGeometry x="80" y="490" width="160" height="86" as="geometry" />
        </mxCell>
        <mxCell id="iZ-1Rn4YMgYXDhb0wlwq-36" value="# radius,height: double" style="text;strokeColor=none;fillColor=none;align=left;verticalAlign=top;spacingLeft=4;spacingRight=4;overflow=hidden;rotatable=0;points=[[0,0.5],[1,0.5]];portConstraint=eastwest;" vertex="1" parent="iZ-1Rn4YMgYXDhb0wlwq-35">
          <mxGeometry y="26" width="160" height="26" as="geometry" />
        </mxCell>
        <mxCell id="iZ-1Rn4YMgYXDhb0wlwq-37" value="" style="line;strokeWidth=1;fillColor=none;align=left;verticalAlign=middle;spacingTop=-1;spacingLeft=3;spacingRight=3;rotatable=0;labelPosition=right;points=[];portConstraint=eastwest;strokeColor=inherit;" vertex="1" parent="iZ-1Rn4YMgYXDhb0wlwq-35">
          <mxGeometry y="52" width="160" height="8" as="geometry" />
        </mxCell>
        <mxCell id="iZ-1Rn4YMgYXDhb0wlwq-38" value="+ getVolume(): double" style="text;strokeColor=none;fillColor=none;align=left;verticalAlign=top;spacingLeft=4;spacingRight=4;overflow=hidden;rotatable=0;points=[[0,0.5],[1,0.5]];portConstraint=eastwest;" vertex="1" parent="iZ-1Rn4YMgYXDhb0wlwq-35">
          <mxGeometry y="60" width="160" height="26" as="geometry" />
        </mxCell>
        <mxCell id="iZ-1Rn4YMgYXDhb0wlwq-42" value="" style="endArrow=open;endFill=1;endSize=12;html=1;rounded=0;exitX=0.5;exitY=1.154;exitDx=0;exitDy=0;exitPerimeter=0;entryX=0.5;entryY=0;entryDx=0;entryDy=0;" edge="1" parent="1" source="iZ-1Rn4YMgYXDhb0wlwq-5" target="iZ-1Rn4YMgYXDhb0wlwq-35">
          <mxGeometry width="160" relative="1" as="geometry">
            <mxPoint x="130" y="470" as="sourcePoint" />
            <mxPoint x="290" y="470" as="targetPoint" />
          </mxGeometry>
        </mxCell>
        <mxCell id="iZ-1Rn4YMgYXDhb0wlwq-43" value="Mitsubishi" style="swimlane;fontStyle=1;align=center;verticalAlign=top;childLayout=stackLayout;horizontal=1;startSize=26;horizontalStack=0;resizeParent=1;resizeParentMax=0;resizeLast=0;collapsible=1;marginBottom=0;" vertex="1" parent="1">
          <mxGeometry x="254" y="490" width="160" height="86" as="geometry" />
        </mxCell>
        <mxCell id="iZ-1Rn4YMgYXDhb0wlwq-44" value="# area,height: double" style="text;strokeColor=none;fillColor=none;align=left;verticalAlign=top;spacingLeft=4;spacingRight=4;overflow=hidden;rotatable=0;points=[[0,0.5],[1,0.5]];portConstraint=eastwest;" vertex="1" parent="iZ-1Rn4YMgYXDhb0wlwq-43">
          <mxGeometry y="26" width="160" height="26" as="geometry" />
        </mxCell>
        <mxCell id="iZ-1Rn4YMgYXDhb0wlwq-45" value="" style="line;strokeWidth=1;fillColor=none;align=left;verticalAlign=middle;spacingTop=-1;spacingLeft=3;spacingRight=3;rotatable=0;labelPosition=right;points=[];portConstraint=eastwest;strokeColor=inherit;" vertex="1" parent="iZ-1Rn4YMgYXDhb0wlwq-43">
          <mxGeometry y="52" width="160" height="8" as="geometry" />
        </mxCell>
        <mxCell id="iZ-1Rn4YMgYXDhb0wlwq-46" value="+ getVolume(): double" style="text;strokeColor=none;fillColor=none;align=left;verticalAlign=top;spacingLeft=4;spacingRight=4;overflow=hidden;rotatable=0;points=[[0,0.5],[1,0.5]];portConstraint=eastwest;" vertex="1" parent="iZ-1Rn4YMgYXDhb0wlwq-43">
          <mxGeometry y="60" width="160" height="26" as="geometry" />
        </mxCell>
        <mxCell id="iZ-1Rn4YMgYXDhb0wlwq-47" value="Rectangular" style="swimlane;fontStyle=1;align=center;verticalAlign=top;childLayout=stackLayout;horizontal=1;startSize=26;horizontalStack=0;resizeParent=1;resizeParentMax=0;resizeLast=0;collapsible=1;marginBottom=0;" vertex="1" parent="1">
          <mxGeometry x="440" y="490" width="180" height="86" as="geometry" />
        </mxCell>
        <mxCell id="iZ-1Rn4YMgYXDhb0wlwq-48" value="# length,width,height: double" style="text;strokeColor=none;fillColor=none;align=left;verticalAlign=top;spacingLeft=4;spacingRight=4;overflow=hidden;rotatable=0;points=[[0,0.5],[1,0.5]];portConstraint=eastwest;" vertex="1" parent="iZ-1Rn4YMgYXDhb0wlwq-47">
          <mxGeometry y="26" width="180" height="26" as="geometry" />
        </mxCell>
        <mxCell id="iZ-1Rn4YMgYXDhb0wlwq-49" value="" style="line;strokeWidth=1;fillColor=none;align=left;verticalAlign=middle;spacingTop=-1;spacingLeft=3;spacingRight=3;rotatable=0;labelPosition=right;points=[];portConstraint=eastwest;strokeColor=inherit;" vertex="1" parent="iZ-1Rn4YMgYXDhb0wlwq-47">
          <mxGeometry y="52" width="180" height="8" as="geometry" />
        </mxCell>
        <mxCell id="iZ-1Rn4YMgYXDhb0wlwq-50" value="+ getVolume(): double" style="text;strokeColor=none;fillColor=none;align=left;verticalAlign=top;spacingLeft=4;spacingRight=4;overflow=hidden;rotatable=0;points=[[0,0.5],[1,0.5]];portConstraint=eastwest;" vertex="1" parent="iZ-1Rn4YMgYXDhb0wlwq-47">
          <mxGeometry y="60" width="180" height="26" as="geometry" />
        </mxCell>
        <mxCell id="iZ-1Rn4YMgYXDhb0wlwq-51" value="" style="endArrow=open;endFill=1;endSize=12;html=1;rounded=0;exitX=0.444;exitY=1;exitDx=0;exitDy=0;exitPerimeter=0;entryX=0.5;entryY=0;entryDx=0;entryDy=0;" edge="1" parent="1" source="iZ-1Rn4YMgYXDhb0wlwq-13" target="iZ-1Rn4YMgYXDhb0wlwq-47">
          <mxGeometry width="160" relative="1" as="geometry">
            <mxPoint x="530" y="404.0039999999999" as="sourcePoint" />
            <mxPoint x="530" y="470" as="targetPoint" />
            <Array as="points">
              <mxPoint x="530" y="440" />
            </Array>
          </mxGeometry>
        </mxCell>
        <mxCell id="iZ-1Rn4YMgYXDhb0wlwq-52" value="" style="endArrow=open;endFill=1;endSize=12;html=1;rounded=0;exitX=0.475;exitY=1.038;exitDx=0;exitDy=0;exitPerimeter=0;" edge="1" parent="1" source="iZ-1Rn4YMgYXDhb0wlwq-9" target="iZ-1Rn4YMgYXDhb0wlwq-43">
          <mxGeometry width="160" relative="1" as="geometry">
            <mxPoint x="339.5" y="404.0039999999999" as="sourcePoint" />
            <mxPoint x="336" y="490" as="targetPoint" />
          </mxGeometry>
        </mxCell>
        <mxCell id="iZ-1Rn4YMgYXDhb0wlwq-54" value="Columnar" style="swimlane;fontStyle=1;align=center;verticalAlign=top;childLayout=stackLayout;horizontal=1;startSize=26;horizontalStack=0;resizeParent=1;resizeParentMax=0;resizeLast=0;collapsible=1;marginBottom=0;" vertex="1" parent="1">
          <mxGeometry x="248" y="660" width="160" height="60" as="geometry" />
        </mxCell>
        <mxCell id="iZ-1Rn4YMgYXDhb0wlwq-56" value="" style="line;strokeWidth=1;fillColor=none;align=left;verticalAlign=middle;spacingTop=-1;spacingLeft=3;spacingRight=3;rotatable=0;labelPosition=right;points=[];portConstraint=eastwest;strokeColor=inherit;" vertex="1" parent="iZ-1Rn4YMgYXDhb0wlwq-54">
          <mxGeometry y="26" width="160" height="8" as="geometry" />
        </mxCell>
        <mxCell id="iZ-1Rn4YMgYXDhb0wlwq-57" value="+ getVolume(): double" style="text;strokeColor=none;fillColor=none;align=left;verticalAlign=top;spacingLeft=4;spacingRight=4;overflow=hidden;rotatable=0;points=[[0,0.5],[1,0.5]];portConstraint=eastwest;" vertex="1" parent="iZ-1Rn4YMgYXDhb0wlwq-54">
          <mxGeometry y="34" width="160" height="26" as="geometry" />
        </mxCell>
        <mxCell id="iZ-1Rn4YMgYXDhb0wlwq-59" value="" style="endArrow=block;dashed=1;endFill=0;endSize=12;html=1;rounded=0;exitX=0.463;exitY=1.192;exitDx=0;exitDy=0;exitPerimeter=0;entryX=0.5;entryY=0;entryDx=0;entryDy=0;" edge="1" parent="1" source="iZ-1Rn4YMgYXDhb0wlwq-46" target="iZ-1Rn4YMgYXDhb0wlwq-54">
          <mxGeometry width="160" relative="1" as="geometry">
            <mxPoint x="120" y="600" as="sourcePoint" />
            <mxPoint x="280" y="600" as="targetPoint" />
            <Array as="points" />
          </mxGeometry>
        </mxCell>
        <mxCell id="iZ-1Rn4YMgYXDhb0wlwq-60" value="" style="endArrow=none;dashed=1;endFill=0;endSize=12;html=1;rounded=0;strokeWidth=1;exitX=0.5;exitY=1.115;exitDx=0;exitDy=0;exitPerimeter=0;" edge="1" parent="1" source="iZ-1Rn4YMgYXDhb0wlwq-38">
          <mxGeometry width="160" relative="1" as="geometry">
            <mxPoint x="120" y="620" as="sourcePoint" />
            <mxPoint x="330" y="620" as="targetPoint" />
            <Array as="points">
              <mxPoint x="160" y="620" />
            </Array>
          </mxGeometry>
        </mxCell>
        <mxCell id="iZ-1Rn4YMgYXDhb0wlwq-62" value="" style="endArrow=none;dashed=1;endFill=0;endSize=12;html=1;rounded=0;strokeWidth=1;entryX=0.483;entryY=1.038;entryDx=0;entryDy=0;entryPerimeter=0;" edge="1" parent="1" target="iZ-1Rn4YMgYXDhb0wlwq-50">
          <mxGeometry width="160" relative="1" as="geometry">
            <mxPoint x="330" y="620" as="sourcePoint" />
            <mxPoint x="570" y="610" as="targetPoint" />
            <Array as="points">
              <mxPoint x="527" y="620" />
            </Array>
          </mxGeometry>
        </mxCell>
        <mxCell id="iZ-1Rn4YMgYXDhb0wlwq-63" value="" style="endArrow=classicThin;endFill=1;endSize=9;html=1;rounded=0;strokeWidth=1;exitX=0.484;exitY=1.077;exitDx=0;exitDy=0;exitPerimeter=0;entryX=1;entryY=0.25;entryDx=0;entryDy=0;" edge="1" parent="1" source="iZ-1Rn4YMgYXDhb0wlwq-33" target="iZ-1Rn4YMgYXDhb0wlwq-54">
          <mxGeometry width="160" relative="1" as="geometry">
            <mxPoint x="750" y="610" as="sourcePoint" />
            <mxPoint x="910" y="610" as="targetPoint" />
            <Array as="points">
              <mxPoint x="862" y="675" />
            </Array>
          </mxGeometry>
        </mxCell>
      </root>
    </mxGraphModel>
  </diagram>
</mxfile>
